HIERARCHY
ROOT pelvis
{
	OFFSET 0.003123 -0.351407 0.012037
	CHANNELS 6 Xposition Yposition Zposition Zrotation Yrotation Xrotation 
	JOINT left_hip
	{
		OFFSET 0.058189 -0.092763 -0.026001
		CHANNELS 3 Zrotation Yrotation Xrotation
		JOINT left_knee
		{
			OFFSET 0.054695 -0.378753 -0.009396
			CHANNELS 3 Zrotation Yrotation Xrotation
			JOINT left_ankle
			{
				OFFSET -0.043453 -0.403059 -0.031876
				CHANNELS 3 Zrotation Yrotation Xrotation
				JOINT left_foot
				{
					OFFSET 0.047257 -0.057997 0.118216
					CHANNELS 3 Zrotation Yrotation Xrotation
					End Site
					{
						OFFSET 0.000000 0.000000 0.000000
					}
				}
			}
		}
	}
	JOINT right_hip
	{
		OFFSET -0.063267 -0.103908 -0.021250
		CHANNELS 3 Zrotation Yrotation Xrotation
		JOINT right_knee
		{
			OFFSET -0.044210 -0.362380 -0.016824
			CHANNELS 3 Zrotation Yrotation Xrotation
			JOINT right_ankle
			{
				OFFSET 0.015417 -0.410728 -0.020192
				CHANNELS 3 Zrotation Yrotation Xrotation
				JOINT right_foot
				{
					OFFSET -0.038812 -0.058328 0.119049
					CHANNELS 3 Zrotation Yrotation Xrotation
					End Site
					{
						OFFSET 0.000000 0.000000 0.000000
					}
				}
			}
		}
	}
	JOINT spine_1
	{
		OFFSET -0.002763 0.109891 -0.027618
		CHANNELS 3 Zrotation Yrotation Xrotation
		JOINT spine_2
		{
			OFFSET 0.009448 0.131853 -0.005940
			CHANNELS 3 Zrotation Yrotation Xrotation
			JOINT spine_3
			{
				OFFSET -0.011330 0.052235 0.028447
				CHANNELS 3 Zrotation Yrotation Xrotation
				JOINT neck
				{
					OFFSET -0.012164 0.165167 -0.031615
					CHANNELS 3 Zrotation Yrotation Xrotation
					JOINT head
					{
						OFFSET 0.024783 0.160452 0.020737
						CHANNELS 3 Zrotation Yrotation Xrotation
						End Site
						{
							OFFSET 0.000000 0.000000 0.000000
						}
					}
				}
				JOINT left_collar
				{
					OFFSET 0.046364 0.084944 -0.007220
					CHANNELS 3 Zrotation Yrotation Xrotation
					JOINT left_shoulder
					{
						OFFSET 0.119239 0.057728 -0.015461
						CHANNELS 3 Zrotation Yrotation Xrotation
						JOINT left_elbow
						{
							OFFSET 0.254123 -0.072151 -0.042459
							CHANNELS 3 Zrotation Yrotation Xrotation
							JOINT left_wrist
							{
								OFFSET 0.251987 0.023221 -0.002472
								CHANNELS 3 Zrotation Yrotation Xrotation
								JOINT left_index_1
								{
									OFFSET 0.101902 -0.008688 0.019351
									CHANNELS 3 Zrotation Yrotation Xrotation
									JOINT left_index_2
									{
										OFFSET 0.030149 -0.011154 0.001151
										CHANNELS 3 Zrotation Yrotation Xrotation
										JOINT left_index_3
										{
											OFFSET 0.006504 -0.021577 -0.002433
											CHANNELS 3 Zrotation Yrotation Xrotation
											End Site
											{
												OFFSET 0.000000 0.000000 0.000000
											}
										}
									}
								}
								JOINT left_middle_1
								{
									OFFSET 0.109398 -0.006328 -0.003981
									CHANNELS 3 Zrotation Yrotation Xrotation
									JOINT left_middle_2
									{
										OFFSET 0.026472 -0.015218 -0.004641
										CHANNELS 3 Zrotation Yrotation Xrotation
										JOINT left_middle_3
										{
											OFFSET 0.005022 -0.023347 -0.001911
											CHANNELS 3 Zrotation Yrotation Xrotation
											End Site
											{
												OFFSET 0.000000 0.000000 0.000000
											}
										}
									}
								}
								JOINT left_pinky_1
								{
									OFFSET 0.084047 -0.014539 -0.043750
									CHANNELS 3 Zrotation Yrotation Xrotation
									JOINT left_pinky_2
									{
										OFFSET 0.012124 -0.014448 -0.005375
										CHANNELS 3 Zrotation Yrotation Xrotation
										JOINT left_pinky_3
										{
											OFFSET 0.003798 -0.018853 0.000167
											CHANNELS 3 Zrotation Yrotation Xrotation
											End Site
											{
												OFFSET 0.000000 0.000000 0.000000
											}
										}
									}
								}
								JOINT left_ring_1
								{
									OFFSET 0.097444 -0.009268 -0.027345
									CHANNELS 3 Zrotation Yrotation Xrotation
									JOINT left_ring_2
									{
										OFFSET 0.023561 -0.016057 -0.001895
										CHANNELS 3 Zrotation Yrotation Xrotation
										JOINT left_ring_3
										{
											OFFSET 0.004257 -0.023548 0.000814
											CHANNELS 3 Zrotation Yrotation Xrotation
											End Site
											{
												OFFSET 0.000000 0.000000 0.000000
											}
										}
									}
								}
								JOINT left_thumb_1
								{
									OFFSET 0.040636 -0.017977 0.025611
									CHANNELS 3 Zrotation Yrotation Xrotation
									JOINT left_thumb_2
									{
										OFFSET 0.021637 -0.017639 0.011623
										CHANNELS 3 Zrotation Yrotation Xrotation
										JOINT left_thumb_3
										{
											OFFSET 0.024002 -0.008356 0.006548
											CHANNELS 3 Zrotation Yrotation Xrotation
											End Site
											{
												OFFSET 0.000000 0.000000 0.000000
											}
										}
									}
								}
							}
						}
					}
				}
				JOINT right_collar
				{
					OFFSET -0.047695 0.084339 -0.013400
					CHANNELS 3 Zrotation Yrotation Xrotation
					JOINT right_shoulder
					{
						OFFSET -0.102578 0.053524 -0.012669
						CHANNELS 3 Zrotation Yrotation Xrotation
						JOINT right_elbow
						{
							OFFSET -0.271150 -0.036492 -0.026467
							CHANNELS 3 Zrotation Yrotation Xrotation
							JOINT right_wrist
							{
								OFFSET -0.249267 -0.004533 -0.015325
								CHANNELS 3 Zrotation Yrotation Xrotation
								JOINT right_index_1
								{
									OFFSET -0.099881 -0.011783 0.019600
									CHANNELS 3 Zrotation Yrotation Xrotation
									JOINT right_index_2
									{
										OFFSET -0.030148 -0.011154 0.001151
										CHANNELS 3 Zrotation Yrotation Xrotation
										JOINT right_index_3
										{
											OFFSET -0.006505 -0.021577 -0.002432
											CHANNELS 3 Zrotation Yrotation Xrotation
											End Site
											{
												OFFSET 0.000000 0.000000 0.000000
											}
										}
									}
								}
								JOINT right_middle_1
								{
									OFFSET -0.107376 -0.009422 -0.003734
									CHANNELS 3 Zrotation Yrotation Xrotation
									JOINT right_middle_2
									{
										OFFSET -0.026472 -0.015218 -0.004641
										CHANNELS 3 Zrotation Yrotation Xrotation
										JOINT right_middle_3
										{
											OFFSET -0.005022 -0.023347 -0.001911
											CHANNELS 3 Zrotation Yrotation Xrotation
											End Site
											{
												OFFSET 0.000000 0.000000 0.000000
											}
										}
									}
								}
								JOINT right_pinky_1
								{
									OFFSET -0.082027 -0.017634 -0.043503
									CHANNELS 3 Zrotation Yrotation Xrotation
									JOINT right_pinky_2
									{
										OFFSET -0.012123 -0.014448 -0.005374
										CHANNELS 3 Zrotation Yrotation Xrotation
										JOINT right_pinky_3
										{
											OFFSET -0.003798 -0.018852 0.000167
											CHANNELS 3 Zrotation Yrotation Xrotation
											End Site
											{
												OFFSET 0.000000 0.000000 0.000000
											}
										}
									}
								}
								JOINT right_ring_1
								{
									OFFSET -0.095423 -0.012362 -0.027099
									CHANNELS 3 Zrotation Yrotation Xrotation
									JOINT right_ring_2
									{
										OFFSET -0.023561 -0.016057 -0.001895
										CHANNELS 3 Zrotation Yrotation Xrotation
										JOINT right_ring_3
										{
											OFFSET -0.004257 -0.023548 0.000816
											CHANNELS 3 Zrotation Yrotation Xrotation
											End Site
											{
												OFFSET 0.000000 0.000000 0.000000
											}
										}
									}
								}
								JOINT right_thumb_1
								{
									OFFSET -0.038613 -0.021074 0.025861
									CHANNELS 3 Zrotation Yrotation Xrotation
									JOINT right_thumb_2
									{
										OFFSET -0.021636 -0.017639 0.011623
										CHANNELS 3 Zrotation Yrotation Xrotation
										JOINT right_thumb_3
										{
											OFFSET -0.024004 -0.008353 0.006547
											CHANNELS 3 Zrotation Yrotation Xrotation
											End Site
											{
												OFFSET 0.000000 0.000000 0.000000
											}
										}
									}
								}
							}
						}
					}
				}
			}
		}
	}
}
MOTION
Frames: 6
Frame Time: 0.050000
0.071636 0.912654 1.044617 -61.678207 -82.874733 57.774583 -20.559458 2.859628 -25.320428 53.885026 5.674237 16.712347 -103.559035 58.456825 45.495325 0.000000 0.000000 0.000000 12.091405 1.621926 18.945702 0.276574 7.409471 -19.898427 -63.310586 15.553543 88.832068 0.000000 0.000000 0.000000 -4.854203 1.549417 18.466732 12.829647 4.609841 -41.167495 -26.211638 -46.631297 50.930300 9.997646 3.884598 3.706836 0.000000 0.000000 0.000000 30.104958 -7.494639 80.458512 151.962618 -67.151568 -70.570748 24.945985 17.227667 0.886967 23.083796 -3.901319 -61.412059 22.773486 8.872954 7.902926 137.202503 38.471304 -135.397625 0.000000 0.000000 0.000000 -26.299190 -34.684863 0.457250 -7.340544 -43.699687 -64.075337 0.000000 0.000000 0.000000 -4.733327 -55.928076 -40.555555 14.183860 -0.749872 -1.648557 0.000000 0.000000 0.000000 -30.152100 -49.284053 -0.515411 14.394170 -10.382927 -40.851954 0.000000 0.000000 0.000000 73.846737 4.966864 2.672411 -45.032777 -2.153067 17.327998 0.000000 0.000000 0.000000 -24.432310 -9.407453 -55.981243 53.520372 -66.323204 -77.902857 48.557797 -42.775814 -31.711462 -12.617180 -3.735126 48.751322 29.775480 -38.545644 -2.795541 -43.057493 -2.482022 34.121142 0.000000 0.000000 0.000000 15.708588 -8.116647 -0.195536 4.612767 -69.252544 84.837186 0.000000 0.000000 0.000000 -91.862218 4.146436 -64.930949 -47.986889 3.506099 -3.710794 0.000000 0.000000 0.000000 -47.061678 20.304032 -29.605949 -162.214331 -67.969290 -65.717838 0.000000 0.000000 0.000000 -40.461595 -55.047776 57.917075 6.083913 30.804711 -9.856810 0.000000 0.000000 0.000000 
0.082001 0.918739 1.028778 -48.386095 -82.820898 44.063349 -21.556519 2.290201 -23.658105 53.655774 5.435853 16.526717 165.017056 85.977786 -49.555722 0.000000 0.000000 0.000000 15.024121 1.269453 19.821381 -4.798902 6.482148 -21.941400 -60.553876 16.222129 91.026714 0.000000 0.000000 0.000000 -6.601941 2.190515 17.904709 14.071587 5.447068 -42.872994 -25.425993 -45.298865 51.096035 12.468238 5.111350 7.101157 0.000000 0.000000 0.000000 33.210581 -12.566043 86.771286 145.406223 -60.726782 -55.016934 23.082281 28.349186 0.427516 25.728269 -8.450044 -71.792225 29.078810 4.218693 9.750688 -138.020302 45.375829 -45.776292 0.000000 0.000000 0.000000 -39.976998 -32.937709 6.852364 -39.372722 -40.928268 -47.782562 0.000000 0.000000 0.000000 -28.922383 -59.584362 -23.814239 8.739808 -0.502799 -0.326734 0.000000 0.000000 0.000000 -48.941403 -50.421809 13.008494 11.672178 -11.398941 -42.408627 0.000000 0.000000 0.000000 81.383326 0.214871 5.637476 -52.200430 -4.343357 21.106511 0.000000 0.000000 0.000000 -27.833695 -15.113216 -57.587391 88.780762 -75.400815 -123.323414 38.678938 -41.073045 -22.215559 -13.236121 -0.572924 63.793035 44.787876 -47.451262 -12.543592 -46.060540 -10.571988 57.662754 0.000000 0.000000 0.000000 47.719503 -8.445482 -3.137796 106.215999 -1.369437 2.931587 0.000000 0.000000 0.000000 -99.535641 -9.528421 -85.580178 -37.218852 2.057778 -8.188418 0.000000 0.000000 0.000000 -85.330153 18.637410 -74.396079 -45.705247 -0.619808 -128.526136 0.000000 0.000000 0.000000 -49.498770 -63.315245 74.029553 -12.700861 42.311848 -28.896506 0.000000 0.000000 0.000000 
0.090481 0.917248 1.012939 -23.383001 -77.687400 19.976760 -22.941072 1.302410 -21.842574 49.129438 3.053865 14.294267 -111.989138 81.851113 34.612257 0.000000 0.000000 0.000000 15.430396 0.305303 18.550415 -4.186371 6.812251 -23.782491 -62.847740 11.971304 94.889714 0.000000 0.000000 0.000000 -6.574026 2.229394 19.724546 12.416829 4.888625 -46.835288 -24.805052 -43.926042 48.663552 19.516345 5.989653 7.292272 0.000000 0.000000 0.000000 37.940733 -19.804441 83.536344 151.308160 -56.145054 -51.320979 14.616613 29.173450 -3.253118 30.144016 -4.782152 -86.812037 30.716194 31.020296 20.697456 -147.176888 72.997473 -57.087093 0.000000 0.000000 0.000000 -74.894504 -10.757450 20.111160 -31.117991 -24.653885 -62.333787 0.000000 0.000000 0.000000 -48.571705 -64.273637 -13.507537 14.444187 -1.459223 -5.499982 0.000000 0.000000 0.000000 -80.495355 -47.942611 33.521686 26.910969 -0.751975 -47.864304 0.000000 0.000000 0.000000 91.575708 -6.576606 3.701991 -90.192180 10.124337 37.192681 0.000000 0.000000 0.000000 -29.487884 -21.393955 -55.765323 129.114258 -81.274235 -169.440977 35.835803 -41.926484 -20.048608 -19.660459 -3.317031 55.380204 34.830579 -54.352139 -6.569102 -49.422133 -4.879952 61.571816 0.000000 0.000000 0.000000 33.161957 -4.721870 -1.230729 111.421655 1.788581 -1.974753 0.000000 0.000000 0.000000 -89.223457 0.804278 -100.591318 -30.252587 1.165672 -3.807551 0.000000 0.000000 0.000000 -79.764416 28.568451 -83.339440 -35.868474 8.007597 -109.702849 0.000000 0.000000 0.000000 -82.059641 -55.894416 97.371031 1.507601 46.615464 -18.507458 0.000000 0.000000 0.000000 
0.092836 0.912735 1.002380 -41.891323 -81.772336 40.255148 -19.759466 1.743199 -22.751401 44.486567 1.962456 13.882720 -117.183752 65.610185 31.879485 0.000000 0.000000 0.000000 13.545342 0.136244 15.071352 0.654081 8.121873 -20.920089 -68.272089 10.593526 87.738249 0.000000 0.000000 0.000000 -5.134362 1.642095 18.861611 11.236483 5.251054 -45.549050 -21.720060 -43.414342 46.630447 21.290296 7.135857 6.840937 0.000000 0.000000 0.000000 46.020902 -19.286610 86.949311 151.699996 -56.101767 -27.683540 8.897516 45.692734 -7.317366 22.882199 -0.052620 -74.768496 38.292606 28.014869 26.602970 94.017502 -43.376556 161.164168 0.000000 0.000000 0.000000 -70.322486 -44.880654 26.723468 -18.266490 -16.587772 -78.844467 0.000000 0.000000 0.000000 -6.378704 -66.513302 -46.816842 17.307394 -0.598893 -0.946102 0.000000 0.000000 0.000000 -56.689986 -63.457763 19.430555 29.812878 1.574981 -43.988369 0.000000 0.000000 0.000000 104.317266 2.562660 22.001258 -97.703495 -16.215897 42.426032 0.000000 0.000000 0.000000 -29.575253 -18.450351 -55.106454 127.414439 -80.639824 -171.283309 31.883975 -42.900935 -18.637617 -23.398834 -8.758260 33.809131 9.543356 -57.794472 10.946237 -56.846298 6.073397 46.065179 0.000000 0.000000 0.000000 14.357387 5.226854 -2.766985 119.606765 -27.295064 -4.622800 0.000000 0.000000 0.000000 -82.730358 15.549815 -100.113571 -34.546777 0.700725 -2.193937 0.000000 0.000000 0.000000 -71.395414 37.038281 -74.680641 -32.423474 5.546046 -111.130622 0.000000 0.000000 0.000000 -87.264326 -45.605696 89.087102 15.190360 36.589530 -5.202156 0.000000 0.000000 0.000000 
0.098019 0.908464 0.997101 -19.416030 -72.111594 18.052280 -22.831045 0.579177 -20.359774 47.218017 3.425276 7.373560 -105.222630 75.927486 44.691013 0.000000 0.000000 0.000000 19.301382 -1.062854 13.552449 -5.836430 5.028928 -21.821538 -66.725824 8.730562 95.650385 0.000000 0.000000 0.000000 -2.833996 0.797062 21.237846 8.191877 3.199504 -49.211639 -19.631733 -42.773182 45.368424 23.421177 6.376994 1.315998 0.000000 0.000000 0.000000 51.140841 -25.374262 79.998823 147.185873 -54.028508 -21.816076 11.696272 44.210483 -5.724983 22.528355 1.709548 -73.843372 46.189444 39.431932 37.340846 89.871535 19.315865 177.272608 0.000000 0.000000 0.000000 -83.305328 -48.818826 38.028194 -13.377515 -6.714998 -87.291558 0.000000 0.000000 0.000000 -9.424775 -62.505963 -41.566565 17.543798 -0.897568 -2.597402 0.000000 0.000000 0.000000 -56.041420 -63.265027 18.356163 33.517559 3.551606 -37.185581 0.000000 0.000000 0.000000 103.345327 5.833655 23.950698 -89.773333 -18.616453 37.409688 0.000000 0.000000 0.000000 -34.668578 -28.260303 -55.418120 -171.339717 -84.315401 127.740531 26.286984 -45.720725 -16.043201 -19.349774 -5.177720 49.502933 25.197536 -59.913329 -0.478479 -53.111720 5.762395 46.642082 0.000000 0.000000 0.000000 14.384720 -35.648864 6.276903 98.983983 -44.227982 25.161117 0.000000 0.000000 0.000000 -91.688609 1.948474 -94.034120 -39.823550 1.575507 -5.925255 0.000000 0.000000 0.000000 -83.657888 21.188514 -70.649669 -55.310737 -17.653479 -124.744620 0.000000 0.000000 0.000000 -90.001772 -53.127268 99.162683 8.980133 39.594748 -10.390967 0.000000 0.000000 0.000000 
0.103201 0.908947 0.997101 -17.482213 -70.092854 16.035024 -25.086740 0.606376 -20.067558 50.021607 4.984421 5.784461 -89.032412 77.561479 59.529867 0.000000 0.000000 0.000000 21.534741 -1.122857 13.377216 -9.580684 4.193248 -22.414077 -64.362366 9.209262 98.209178 0.000000 0.000000 0.000000 -2.596180 0.721049 21.659499 8.024560 2.890166 -49.834876 -17.409145 -40.920758 43.804323 23.041677 5.792147 -0.692666 0.000000 0.000000 0.000000 57.416296 -28.793961 79.246084 143.026432 -51.182879 -11.615379 7.313600 49.912296 -8.671025 23.238758 0.928377 -62.259861 51.188265 35.400802 41.503355 81.386763 6.160082 170.620495 0.000000 0.000000 0.000000 -67.626793 -58.739528 28.120954 -22.891483 -20.029384 -83.260441 0.000000 0.000000 0.000000 14.429912 -62.130446 -62.939190 20.213105 -0.226832 1.203884 0.000000 0.000000 0.000000 -35.351226 -70.132879 0.878488 35.148896 4.775466 -35.506534 0.000000 0.000000 0.000000 105.217360 9.112496 36.813016 -70.244751 -27.972595 28.162253 0.000000 0.000000 0.000000 -36.913776 -32.103989 -55.818074 -118.757674 -79.689644 72.298554 27.785044 -49.030287 -18.149946 -20.027876 -6.463493 38.603007 11.468286 -48.238868 7.617531 -55.815689 4.989048 37.149104 0.000000 0.000000 0.000000 -2.708067 -7.895755 3.745592 -11.517248 -70.552433 113.960192 0.000000 0.000000 0.000000 -88.231864 9.838550 -78.680893 -38.303936 1.644505 -2.493874 0.000000 0.000000 0.000000 -60.084411 24.273098 -43.565725 -96.270392 -52.003672 -109.281155 0.000000 0.000000 0.000000 -76.166296 -50.170458 81.694244 10.237864 33.831398 -7.488186 0.000000 0.000000 0.000000 
